<svg width="375" height="375" viewBox="0 0 375 375" fill="none" xmlns="http://www.w3.org/2000/svg">
<path fill-rule="evenodd" clip-rule="evenodd" d="M328.142 240.458V119.026C328.142 106.956 321.683 95.822 311.162 89.7868L205.951 29.0187C195.43 22.9836 182.617 22.9836 172.096 29.0187L66.8842 89.6828C56.3631 95.718 49.9045 106.852 49.9045 119.026V240.458C49.9045 252.529 56.3631 263.663 66.8842 269.698L172.096 330.362C182.617 336.397 195.43 336.397 205.951 330.362L311.266 269.594C321.683 263.663 328.142 252.529 328.142 240.458Z" fill="#B4307F"/>
<path fill-rule="evenodd" clip-rule="evenodd" d="M189.075 316.21C186.471 316.21 183.867 315.482 181.471 314.233L76.2594 253.465C71.5718 250.76 68.655 245.765 68.655 240.354V119.026C68.655 113.615 71.5718 108.621 76.1553 105.915L181.471 45.1473C183.763 43.7945 186.367 43.1702 189.075 43.1702C191.784 43.1702 194.284 43.8986 196.68 45.1473L301.995 105.915C306.683 108.621 309.6 113.615 309.6 119.026V240.458C309.6 245.869 306.683 250.864 301.995 253.569L196.68 314.337C194.284 315.482 191.68 316.21 189.075 316.21Z" fill="#D561FC"/>
<mask id="mask0_405_2" style="mask-type:alpha" maskUnits="userSpaceOnUse" x="59" y="157" width="259" height="61">
<path d="M59.6455 157.301H317.645V217.301H59.6455V157.301Z" fill="white"/>
</mask>
<g mask="url(#mask0_405_2)">
<path fill-rule="evenodd" clip-rule="evenodd" d="M59.6455 58.2317H317.645V316.232H59.6455V58.2317Z" fill="#B4307F"/>
</g>
<mask id="mask1_405_2" style="mask-type:alpha" maskUnits="userSpaceOnUse" x="171" y="268" width="36" height="35">
<path d="M171 268H206.139V302.037H171V268Z" fill="white"/>
</mask>
<g mask="url(#mask1_405_2)">
<path fill-rule="evenodd" clip-rule="evenodd" d="M193.917 279.167L206.139 280.912L197.335 289.657L199.471 301.948L188.523 296.186L177.621 302.037L179.658 289.73L170.785 281.056L182.992 279.212L188.41 268L193.917 279.167Z" fill="white"/>
</g>
<path fill-rule="evenodd" clip-rule="evenodd" d="M227.87 89.8803C227.87 88.6713 227.312 87.7413 226.289 87.0903C226.103 86.9973 225.824 86.8113 225.638 86.7183C225.638 83.6494 225.545 80.4875 225.359 77.3256C224.987 70.0718 221.174 66.5378 214.013 66.4448C207.782 66.4448 201.551 66.4448 195.32 66.4448C185.183 66.4448 175.139 66.3518 165.002 66.5378C155.702 66.7238 151.982 70.6297 151.982 79.9295C151.982 82.1614 151.982 84.3934 151.982 86.7183C151.424 86.9043 150.959 87.3693 150.587 87.8343C149.936 88.3923 149.75 89.2293 149.75 90.1592C149.75 94.4371 149.75 98.715 149.75 103.086C149.75 104.388 150.215 105.411 151.331 106.062C151.61 106.248 151.796 106.341 152.075 106.434C152.075 115.641 152.075 124.754 152.075 133.961C152.075 135.263 151.889 136.751 152.54 137.867C153.935 140.099 153.656 142.517 153.749 144.935C153.842 147.911 155.795 149.957 158.771 150.05C160.91 150.143 163.049 150.143 165.188 150.05C168.257 149.957 170.21 148.19 170.303 145.121C170.396 143.819 170.582 143.354 172.07 143.354C183.23 143.447 194.483 143.447 205.643 143.354C207.038 143.354 207.41 143.726 207.41 145.121C207.503 148.376 209.456 150.05 212.711 150.05C214.571 150.05 216.431 150.05 218.291 150.05C222.104 150.05 223.964 148.097 224.057 144.284C224.057 142.796 223.592 141.122 224.429 139.727C225.452 137.867 225.731 136.007 225.731 133.961C225.731 125.312 225.731 116.664 225.731 106.434C226.382 106.341 226.94 105.783 227.312 105.225C227.777 104.667 227.963 103.923 227.963 103.179C227.87 98.808 227.87 94.3441 227.87 89.8803ZM173.279 73.1407C178.859 73.1407 184.439 73.1407 189.926 73.1407C195.32 73.1407 200.714 73.1407 206.201 73.1407C208.619 73.1407 208.898 73.5127 208.991 76.3026C208.991 79.3715 208.712 79.8365 206.387 79.8365C195.32 79.8365 184.253 79.8365 173.279 79.8365C170.861 79.8365 170.396 79.2785 170.396 76.4886C170.303 73.6987 170.768 73.1407 173.279 73.1407ZM166.304 135.077C163.049 135.077 160.352 132.38 160.352 129.125C160.445 125.963 163.142 123.359 166.211 123.359C169.466 123.359 171.884 125.87 171.884 129.218C171.977 132.473 169.466 135.077 166.304 135.077ZM165.467 114.99C161.933 114.99 160.352 113.316 160.352 109.689C160.352 103.179 160.352 96.6691 160.352 90.1592C160.352 86.5323 161.84 85.0444 165.467 85.0444C173.279 85.0444 180.998 85.0444 188.81 85.0444C196.436 85.0444 204.062 85.0444 211.688 85.0444C215.78 85.0444 217.175 86.4393 217.175 90.4382C217.175 96.6691 217.175 102.9 217.175 109.131C217.175 112.851 215.129 114.897 211.409 114.99C196.157 114.99 180.812 114.99 165.467 114.99ZM211.409 135.077C208.247 135.077 205.736 132.566 205.643 129.311C205.643 125.963 208.061 123.452 211.316 123.452C214.571 123.452 217.268 126.149 217.268 129.404C217.175 132.38 214.571 135.077 211.409 135.077Z" fill="white"/>
<path d="M85.865 203.45C83.465 203.45 81.635 202.775 80.375 201.425C79.115 200.045 78.485 198.08 78.485 195.53V178.97C78.485 176.42 79.115 174.47 80.375 173.12C81.635 171.74 83.465 171.05 85.865 171.05C88.265 171.05 90.095 171.74 91.355 173.12C92.615 174.47 93.245 176.42 93.245 178.97V181.67H88.565V178.655C88.565 176.585 87.71 175.55 86 175.55C84.29 175.55 83.435 176.585 83.435 178.655V195.89C83.435 197.93 84.29 198.95 86 198.95C87.71 198.95 88.565 197.93 88.565 195.89V189.725H86.09V185.225H93.245V195.53C93.245 198.08 92.615 200.045 91.355 201.425C90.095 202.775 88.265 203.45 85.865 203.45ZM100.293 176H95.1181V171.5H110.418V176H105.243V203H100.293V176ZM112.815 171.5H125.91V176H117.765V184.775H124.155V189.275H117.765V203H112.815V171.5ZM134.718 203.45C132.318 203.45 130.503 202.775 129.273 201.425C128.043 200.045 127.428 198.08 127.428 195.53V193.73H132.108V195.89C132.108 197.93 132.963 198.95 134.673 198.95C135.513 198.95 136.143 198.71 136.563 198.23C137.013 197.72 137.238 196.91 137.238 195.8C137.238 194.48 136.938 193.325 136.338 192.335C135.738 191.315 134.628 190.1 133.008 188.69C130.968 186.89 129.543 185.27 128.733 183.83C127.923 182.36 127.518 180.71 127.518 178.88C127.518 176.39 128.148 174.47 129.408 173.12C130.668 171.74 132.498 171.05 134.898 171.05C137.268 171.05 139.053 171.74 140.253 173.12C141.483 174.47 142.098 176.42 142.098 178.97V180.275H137.418V178.655C137.418 177.575 137.208 176.795 136.788 176.315C136.368 175.805 135.753 175.55 134.943 175.55C133.293 175.55 132.468 176.555 132.468 178.565C132.468 179.705 132.768 180.77 133.368 181.76C133.998 182.75 135.123 183.95 136.743 185.36C138.813 187.16 140.238 188.795 141.018 190.265C141.798 191.735 142.188 193.46 142.188 195.44C142.188 198.02 141.543 200 140.253 201.38C138.993 202.76 137.148 203.45 134.718 203.45ZM144.131 185H154.031V189.5H144.131V185ZM157.554 176H152.379V171.5H167.679V176H162.504V203H157.554V176ZM177.055 203.45C174.625 203.45 172.765 202.76 171.475 201.38C170.185 200 169.54 198.05 169.54 195.53V178.97C169.54 176.45 170.185 174.5 171.475 173.12C172.765 171.74 174.625 171.05 177.055 171.05C179.485 171.05 181.345 171.74 182.635 173.12C183.925 174.5 184.57 176.45 184.57 178.97V195.53C184.57 198.05 183.925 200 182.635 201.38C181.345 202.76 179.485 203.45 177.055 203.45ZM177.055 198.95C178.765 198.95 179.62 197.915 179.62 195.845V178.655C179.62 176.585 178.765 175.55 177.055 175.55C175.345 175.55 174.49 176.585 174.49 178.655V195.845C174.49 197.915 175.345 198.95 177.055 198.95ZM187.197 185H197.097V189.5H187.197V185ZM200.046 171.5H207.516C210.066 171.5 211.926 172.1 213.096 173.3C214.266 174.47 214.851 176.285 214.851 178.745V180.005C214.851 181.625 214.581 182.945 214.041 183.965C213.531 184.985 212.736 185.72 211.656 186.17V186.26C214.116 187.1 215.346 189.29 215.346 192.83V195.53C215.346 197.96 214.701 199.82 213.411 201.11C212.151 202.37 210.291 203 207.831 203H200.046V171.5ZM206.931 184.325C207.921 184.325 208.656 184.07 209.136 183.56C209.646 183.05 209.901 182.195 209.901 180.995V179.24C209.901 178.1 209.691 177.275 209.271 176.765C208.881 176.255 208.251 176 207.381 176H204.996V184.325H206.931ZM207.831 198.5C208.701 198.5 209.346 198.275 209.766 197.825C210.186 197.345 210.396 196.535 210.396 195.395V192.65C210.396 191.21 210.141 190.22 209.631 189.68C209.151 189.11 208.341 188.825 207.201 188.825H204.996V198.5H207.831ZM218.24 171.5H223.19V198.5H231.335V203H218.24V171.5ZM240.688 203.45C238.258 203.45 236.398 202.76 235.108 201.38C233.818 200 233.172 198.05 233.172 195.53V178.97C233.172 176.45 233.818 174.5 235.108 173.12C236.398 171.74 238.258 171.05 240.688 171.05C243.118 171.05 244.978 171.74 246.268 173.12C247.558 174.5 248.203 176.45 248.203 178.97V195.53C248.203 198.05 247.558 200 246.268 201.38C244.978 202.76 243.118 203.45 240.688 203.45ZM240.688 198.95C242.398 198.95 243.252 197.915 243.252 195.845V178.655C243.252 176.585 242.398 175.55 240.688 175.55C238.978 175.55 238.123 176.585 238.123 178.655V195.845C238.123 197.915 238.978 198.95 240.688 198.95ZM258.525 203.45C256.155 203.45 254.34 202.775 253.08 201.425C251.85 200.075 251.235 198.17 251.235 195.71V178.79C251.235 176.33 251.85 174.425 253.08 173.075C254.34 171.725 256.155 171.05 258.525 171.05C260.895 171.05 262.695 171.725 263.925 173.075C265.185 174.425 265.815 176.33 265.815 178.79V182.12H261.135V178.475C261.135 176.525 260.31 175.55 258.66 175.55C257.01 175.55 256.185 176.525 256.185 178.475V196.07C256.185 197.99 257.01 198.95 258.66 198.95C260.31 198.95 261.135 197.99 261.135 196.07V191.255H265.815V195.71C265.815 198.17 265.185 200.075 263.925 201.425C262.695 202.775 260.895 203.45 258.525 203.45ZM268.777 171.5H273.727V184.775L280.027 171.5H284.977L279.082 183.065L285.067 203H279.892L275.707 188.96L273.727 192.965V203H268.777V171.5ZM293.537 203.45C291.137 203.45 289.322 202.775 288.092 201.425C286.862 200.045 286.247 198.08 286.247 195.53V193.73H290.927V195.89C290.927 197.93 291.782 198.95 293.492 198.95C294.332 198.95 294.962 198.71 295.382 198.23C295.832 197.72 296.057 196.91 296.057 195.8C296.057 194.48 295.757 193.325 295.157 192.335C294.557 191.315 293.447 190.1 291.827 188.69C289.787 186.89 288.362 185.27 287.552 183.83C286.742 182.36 286.337 180.71 286.337 178.88C286.337 176.39 286.967 174.47 288.227 173.12C289.487 171.74 291.317 171.05 293.717 171.05C296.087 171.05 297.872 171.74 299.072 173.12C300.302 174.47 300.917 176.42 300.917 178.97V180.275H296.237V178.655C296.237 177.575 296.027 176.795 295.607 176.315C295.187 175.805 294.572 175.55 293.762 175.55C292.112 175.55 291.287 176.555 291.287 178.565C291.287 179.705 291.587 180.77 292.187 181.76C292.817 182.75 293.942 183.95 295.562 185.36C297.632 187.16 299.057 188.795 299.837 190.265C300.617 191.735 301.007 193.46 301.007 195.44C301.007 198.02 300.362 200 299.072 201.38C297.812 202.76 295.967 203.45 293.537 203.45Z" fill="white"/>
</svg>
